<svg xmlns="http://www.w3.org/2000/svg" viewBox="0 0 662 162" role="img" aria-label="Volcano Cars">
    <path d="M0 0 L22 0 L40 74 L58 0 L80 0 L54 100 L26 100 Z M112 0 L160 0 Q176 0 176 16 L176 84 Q176 100 160 100 L112 100 Q96 100 96 84 L96 16 Q96 0 112 0 Z M122 22 L150 22 Q154 22 154 26 L154 74 Q154 78 150 78 L122 78 Q118 78 118 74 L118 26 Q118 22 122 22 Z M192 0 L214 0 L214 78 L256 78 L256 100 L192 100 Z M288 0 L348 0 L348 22 L298 22 Q294 22 294 26 L294 74 Q294 78 298 78 L348 78 L348 100 L288 100 Q272 100 272 84 L272 16 Q272 0 288 0 Z M364 100 L364 16 Q364 0 380 0 L428 0 Q444 0 444 16 L444 100 L422 100 L422 68 L386 68 L386 100 Z M386 22 L422 22 L422 48 L386 48 Z M460 0 L484 0 L518 62 L518 0 L540 0 L540 100 L516 100 L482 38 L482 100 L460 100 Z" fill="#1B1B1A" fill-rule="evenodd"/>
    <path d="M552 100 L580 0 L596 0 L607 14 L618 0 L634 0 L662 100 Z" fill="#1B1B1A" fill-rule="evenodd"/>
    <path d="M592.9 36 L621.1 36 L632.8 78 L581.2 78 Z" fill="#D9481C"/>
    <path d="M0 122 L170 122 L170 162 L0 162 Z" fill="#D9481C"/>
    <path d="M29 134.52 Q29 131 32.52 131 L45.28 131 L45.28 135.84 L34.72 135.84 Q33.84 135.84 33.84 136.72 L33.84 147.28 Q33.84 148.16 34.72 148.16 L45.28 148.16 L45.28 153 L32.52 153 Q29 153 29 149.48 Z M60.907 153 L60.907 134.52 Q60.907 131 64.427 131 L73.667 131 Q77.187 131 77.187 134.52 L77.187 153 L72.347 153 L72.347 148.16 L65.747 148.16 L65.747 153 Z M65.747 136.72 Q65.747 135.84 66.627 135.84 L71.467 135.84 Q72.347 135.84 72.347 136.72 L72.347 143.32 L65.747 143.32 Z M92.813 153 L92.813 131 L105.573 131 Q109.093 131 109.093 134.52 L109.093 139.8 Q109.093 143.32 105.573 143.32 L97.653 143.32 L97.653 153 Z M97.653 135.84 L103.373 135.84 Q104.253 135.84 104.253 136.72 L104.253 137.6 Q104.253 138.48 103.373 138.48 L97.653 138.48 Z M97.697 143.32 L103.263 143.32 L109.093 153 L103.527 153 Z M124.72 134.52 Q124.72 131 128.24 131 L141 131 L141 135.84 L130.44 135.84 Q129.56 135.84 129.56 136.72 L129.56 139.58 L137.48 139.58 Q141 139.58 141 143.1 L141 149.48 Q141 153 137.48 153 L124.72 153 L124.72 148.16 L135.28 148.16 Q136.16 148.16 136.16 147.28 L136.16 144.42 L128.24 144.42 Q124.72 144.42 124.72 140.9 Z" fill="#1B1B1A"/>
    <path d="M178 122 L662 122 L662 162 L178 162 Z" fill="#1B1B1A"/>
    <path d="M200 134.5 L209.6 134.5 L209.6 137.35 L206.225 137.35 L206.225 149.5 L203.375 149.5 L203.375 137.35 L200 137.35 Z M214.759 149.5 L214.759 136.9 Q214.759 134.5 217.159 134.5 L221.959 134.5 Q224.359 134.5 224.359 136.9 L224.359 149.5 L221.509 149.5 L221.509 145.75 L217.609 145.75 L217.609 149.5 Z M217.609 137.95 Q217.609 137.35 218.209 137.35 L220.909 137.35 Q221.509 137.35 221.509 137.95 L221.509 142.9 L217.609 142.9 Z M229.519 134.5 L232.369 134.5 L232.369 146.65 L238.159 146.65 L238.159 149.5 L229.519 149.5 Z M243.318 134.5 L246.168 134.5 L246.168 146.65 L251.958 146.65 L251.958 149.5 L243.318 149.5 Z M257.118 134.5 L266.718 134.5 L266.718 137.35 L259.968 137.35 L259.968 140.575 L265.374 140.575 L265.374 143.425 L259.968 143.425 L259.968 146.65 L266.718 146.65 L266.718 149.5 L257.118 149.5 Z M271.877 149.5 L271.877 134.5 L279.077 134.5 Q281.477 134.5 281.477 136.9 L281.477 140.5 Q281.477 142.9 279.077 142.9 L274.727 142.9 L274.727 149.5 Z M274.727 137.35 L278.027 137.35 Q278.627 137.35 278.627 137.95 L278.627 139.45 Q278.627 140.05 278.027 140.05 L274.727 140.05 Z M274.757 142.9 L278.035 142.9 L281.477 149.5 L278.2 149.5 Z M296.596 134.5 L299.446 134.5 L303.316 140.5 L307.186 134.5 L310.036 134.5 L310.036 149.5 L307.186 149.5 L307.186 139.139 L303.316 145.139 L299.446 139.139 L299.446 149.5 L296.596 149.5 Z M315.196 134.5 L324.796 134.5 L324.796 137.35 L318.046 137.35 L318.046 140.575 L323.452 140.575 L323.452 143.425 L318.046 143.425 L318.046 146.65 L324.796 146.65 L324.796 149.5 L315.196 149.5 Z M329.955 136.9 Q329.955 134.5 332.355 134.5 L339.555 134.5 L339.555 137.35 L333.405 137.35 Q332.805 137.35 332.805 137.95 L332.805 146.05 Q332.805 146.65 333.405 146.65 L339.555 146.65 L339.555 149.5 L332.355 149.5 Q329.955 149.5 329.955 147.1 Z M344.715 149.5 L344.715 136.9 Q344.715 134.5 347.115 134.5 L351.915 134.5 Q354.315 134.5 354.315 136.9 L354.315 149.5 L351.465 149.5 L351.465 145.75 L347.565 145.75 L347.565 149.5 Z M347.565 137.95 Q347.565 137.35 348.165 137.35 L350.865 137.35 Q351.465 137.35 351.465 137.95 L351.465 142.9 L347.565 142.9 Z M347.947 133.15 L350.512 133.15 L353.077 130.75 L350.512 130.75 Z M359.474 134.5 L362.609 134.5 L366.224 142.887 L366.224 134.5 L369.074 134.5 L369.074 149.5 L365.939 149.5 L362.324 141.113 L362.324 149.5 L359.474 149.5 Z M374.233 134.5 L377.083 134.5 L377.083 149.5 L374.233 149.5 Z M382.243 136.9 Q382.243 134.5 384.643 134.5 L391.843 134.5 L391.843 137.35 L385.693 137.35 Q385.093 137.35 385.093 137.95 L385.093 146.05 Q385.093 146.65 385.693 146.65 L391.843 146.65 L391.843 149.5 L384.643 149.5 Q382.243 149.5 382.243 147.1 Z M397.002 136.9 Q397.002 134.5 399.402 134.5 L404.202 134.5 Q406.602 134.5 406.602 136.9 L406.602 147.1 Q406.602 149.5 404.202 149.5 L399.402 149.5 Q397.002 149.5 397.002 147.1 Z M400.452 137.35 Q399.852 137.35 399.852 137.95 L399.852 146.05 Q399.852 146.65 400.452 146.65 L403.152 146.65 Q403.752 146.65 403.752 146.05 L403.752 137.95 Q403.752 137.35 403.152 137.35 Z M421.721 140.361 L424.999 140.361 L424.999 143.639 L421.721 143.639 Z M440.118 136.9 Q440.118 134.5 442.518 134.5 L449.718 134.5 L449.718 137.35 L443.568 137.35 Q442.968 137.35 442.968 137.95 L442.968 146.05 Q442.968 146.65 443.568 146.65 L449.718 146.65 L449.718 149.5 L442.518 149.5 Q440.118 149.5 440.118 147.1 Z M454.877 134.5 L457.727 134.5 L457.727 140.575 L461.627 140.575 L461.627 134.5 L464.477 134.5 L464.477 149.5 L461.627 149.5 L461.627 143.425 L457.727 143.425 L457.727 149.5 L454.877 149.5 Z M469.637 149.5 L469.637 136.9 Q469.637 134.5 472.037 134.5 L476.837 134.5 Q479.237 134.5 479.237 136.9 L479.237 149.5 L476.387 149.5 L476.387 145.75 L472.487 145.75 L472.487 149.5 Z M472.487 137.95 Q472.487 137.35 473.087 137.35 L475.787 137.35 Q476.387 137.35 476.387 137.95 L476.387 142.9 L472.487 142.9 Z M484.396 149.5 L484.396 134.5 L491.596 134.5 Q493.996 134.5 493.996 136.9 L493.996 140.8 Q493.996 143.2 491.596 143.2 L487.246 143.2 L487.246 149.5 Z M487.246 137.35 L490.546 137.35 Q491.146 137.35 491.146 137.95 L491.146 139.75 Q491.146 140.35 490.546 140.35 L487.246 140.35 Z M499.155 149.5 L499.155 136.9 Q499.155 134.5 501.555 134.5 L506.355 134.5 Q508.755 134.5 508.755 136.9 L508.755 149.5 L505.905 149.5 L505.905 145.75 L502.005 145.75 L502.005 149.5 Z M502.005 137.95 Q502.005 137.35 502.605 137.35 L505.305 137.35 Q505.905 137.35 505.905 137.95 L505.905 142.9 L502.005 142.9 Z M523.874 134.5 L527.152 134.5 L528.674 138.289 L530.197 134.5 L533.474 134.5 L530.099 142.9 L530.099 149.5 L527.249 149.5 L527.249 142.9 Z M548.593 149.5 L548.593 134.5 L555.793 134.5 Q558.193 134.5 558.193 136.9 L558.193 140.8 Q558.193 143.2 555.793 143.2 L551.443 143.2 L551.443 149.5 Z M551.443 137.35 L554.743 137.35 Q555.343 137.35 555.343 137.95 L555.343 139.75 Q555.343 140.35 554.743 140.35 L551.443 140.35 Z M563.353 134.5 L566.203 134.5 L566.203 149.5 L563.353 149.5 Z M571.362 134.5 L574.497 134.5 L578.112 142.887 L578.112 134.5 L580.962 134.5 L580.962 149.5 L577.827 149.5 L574.212 141.113 L574.212 149.5 L571.362 149.5 Z M586.122 134.5 L595.722 134.5 L595.722 137.35 L592.347 137.35 L592.347 149.5 L589.497 149.5 L589.497 137.35 L586.122 137.35 Z M600.881 134.5 L603.731 134.5 L603.731 146.05 Q603.731 146.65 604.331 146.65 L607.031 146.65 Q607.631 146.65 607.631 146.05 L607.631 134.5 L610.481 134.5 L610.481 147.1 Q610.481 149.5 608.081 149.5 L603.281 149.5 Q600.881 149.5 600.881 147.1 Z M615.641 149.5 L615.641 134.5 L622.841 134.5 Q625.241 134.5 625.241 136.9 L625.241 140.5 Q625.241 142.9 622.841 142.9 L618.491 142.9 L618.491 149.5 Z M618.491 137.35 L621.791 137.35 Q622.391 137.35 622.391 137.95 L622.391 139.45 Q622.391 140.05 621.791 140.05 L618.491 140.05 Z M618.521 142.9 L621.798 142.9 L625.241 149.5 L621.963 149.5 Z M630.4 149.5 L630.4 136.9 Q630.4 134.5 632.8 134.5 L637.6 134.5 Q640 134.5 640 136.9 L640 149.5 L637.15 149.5 L637.15 145.75 L633.25 145.75 L633.25 149.5 Z M633.25 137.95 Q633.25 137.35 633.85 137.35 L636.55 137.35 Q637.15 137.35 637.15 137.95 L637.15 142.9 L633.25 142.9 Z" style="fill:#F2EFEA"/>
  </svg>